<svg width="33" height="33" viewBox="0 0 33 34" fill="none" xmlns="http://www.w3.org/2000/svg">
<path fill-rule="evenodd" clip-rule="evenodd" d="M13.5503 5.17987H5.21155C2.33329 5.17987 0 7.50053 0 10.3632V27.8384C0 30.7011 2.33329 33.0218 5.21155 33.0218H22.633C25.5113 33.0218 27.8446 30.7011 27.8446 27.8384V19.1008H25.6111V27.8384C25.6111 29.4742 24.2778 30.8003 22.633 30.8003H5.21155C3.56683 30.8003 2.23352 29.4742 2.23352 27.8384V10.3632C2.23352 8.72739 3.56683 7.4013 5.21155 7.4013H13.5503V5.17987Z" fill="white"/>
<path fill-rule="evenodd" clip-rule="evenodd" d="M26.6816 5.08048C27.4217 5.08327 28.0194 5.68226 28.0166 6.41837L28.0166 15.7737C27.3231 15.7737 27.3993 15.7765 26.6591 15.7737C25.919 15.7709 26.2808 15.7737 25.3241 15.7737L25.3241 9.62605L14.6425 20.1696L12.7545 18.2775L23.4361 7.73397L17.0489 7.75627C17.0489 7.10506 17.0461 7.15448 17.0489 6.41837C17.0517 5.68226 17.0388 5.69816 17.0489 5.09058L26.6816 5.08048Z" fill="white"/>
</svg>
