<svg width="47" height="47" viewBox="0 0 47 47" fill="none" xmlns="http://www.w3.org/2000/svg">
<path d="M46.7131 43.944L33.06 30.2908C35.6496 27.0938 37.2084 23.0294 37.2084 18.6042C37.2084 8.34591 28.8625 0 18.6041 0C8.34582 0 0 8.34591 0 18.6042C0 28.8626 8.34591 37.2085 18.6042 37.2085C23.0294 37.2085 27.0938 35.6496 30.2908 33.0601L43.944 46.7132C44.3265 47.0956 44.9463 47.0956 45.3288 46.7132L46.7132 45.3287C47.0956 44.9463 47.0956 44.3263 46.7131 43.944ZM18.6042 33.2918C10.5051 33.2918 3.9167 26.7034 3.9167 18.6042C3.9167 10.5051 10.5051 3.91671 18.6042 3.91671C26.7034 3.91671 33.2918 10.5051 33.2918 18.6042C33.2918 26.7034 26.7034 33.2918 18.6042 33.2918Z" fill="#C4C4C4"/>
</svg>
